<svg id="visual" viewBox="0 0 900 600" width="900" height="600" xmlns="http://www.w3.org/2000/svg" xmlns:xlink="http://www.w3.org/1999/xlink" version="1.1"><g transform="translate(478.31843773894514 321.4986520392331)"><path d="M119.8 -196.2C156.3 -162.9 187.8 -131.5 199.1 -94.5C210.5 -57.5 201.8 -14.9 188.8 22.3C175.9 59.4 158.8 91.1 135.9 118C113 144.9 84.2 166.9 48.1 189.2C11.9 211.4 -31.6 233.8 -77.3 233.8C-123 233.9 -170.7 211.6 -206.5 175.8C-242.3 140.1 -266.1 90.9 -260.1 45.5C-254 0.1 -218 -41.5 -196.5 -90.2C-175 -139 -168 -194.8 -137.7 -231C-107.4 -267.1 -53.7 -283.6 -6 -274.2C41.6 -264.8 83.3 -229.6 119.8 -196.2" fill="#48B7EC"></path></g></svg>